<svg width="20" height="21" viewBox="0 0 20 21" fill="none" xmlns="http://www.w3.org/2000/svg">
<path id="search" fill-rule="evenodd" clip-rule="evenodd" d="M8.5 0.516769C3.80558 0.516769 0 4.42691 0 9.2503C0 14.0737 3.80558 17.9838 8.5 17.9838C10.4869 17.9838 12.3146 17.2834 13.7619 16.1097L17.4142 19.8624C17.8047 20.2636 18.4379 20.2636 18.8284 19.8624C19.2189 19.4611 19.2189 18.8106 18.8284 18.4093L15.1761 14.6566C16.3183 13.1696 17 11.2917 17 9.2503C17 4.42691 13.1944 0.516769 8.5 0.516769ZM2 9.2503C2 5.56182 4.91015 2.57172 8.5 2.57172C12.0899 2.57172 15 5.56182 15 9.2503C15 12.9388 12.0899 15.9289 8.5 15.9289C4.91015 15.9289 2 12.9388 2 9.2503Z" fill="#09244B"/>
</svg>
